<?xml version="1.0" encoding="UTF-8"?>
<svg version="1.1" xmlns="http://www.w3.org/2000/svg" width="2323" height="1536">
<path d="M0 0 C766.59 0 1533.18 0 2323 0 C2323 506.88 2323 1013.76 2323 1536 C1556.41 1536 789.82 1536 0 1536 C0 1029.12 0 522.24 0 0 Z " fill="#0E0E0D" transform="translate(0,0)"/>
<path d="M0 0 C9.3294604 6.9970953 18.27442791 14.36363531 27.15844727 21.90844727 C32.38382779 26.34029529 37.68329341 30.67823266 43 35 C48.77665135 39.69564057 54.51860744 44.42465663 60.1875 49.25 C65.04660133 53.38566916 69.97272305 57.42945832 74.9375 61.4375 C80.73055437 66.11634535 86.42456419 70.89218787 92.06005859 75.75927734 C96.38501848 79.48991122 100.78411643 83.11887099 105.21875 86.71875 C108.36383795 89.29842888 111.46479676 91.92631983 114.5625 94.5625 C119.11637426 98.43552052 123.73495301 102.20622891 128.421875 105.91796875 C131.40967273 108.33084176 134.3305302 110.81799702 137.25 113.3125 C141.7285972 117.13553155 146.2850042 120.82842107 150.9375 124.4375 C156.4164619 128.69179762 161.71380689 133.11867999 166.95849609 137.65771484 C171.3160576 141.42724443 175.74969791 145.09043017 180.22265625 148.72265625 C183.34396367 151.28204054 186.4245003 153.88593791 189.5 156.5 C193.46903543 159.87283589 197.46017021 163.21176645 201.5 166.5 C206.1045358 170.24787798 210.64019191 174.06983444 215.1640625 177.9140625 C218.5805954 180.81244823 222.02504838 183.671551 225.5 186.5 C230.1045358 190.24787798 234.64019191 194.06983444 239.1640625 197.9140625 C242.5805954 200.81244823 246.02504838 203.671551 249.5 206.5 C254.1045358 210.24787798 258.64019191 214.06983444 263.1640625 217.9140625 C266.5805954 220.81244823 270.02504838 223.671551 273.5 226.5 C278.10248466 230.24620845 282.63722411 234.06522787 287.1574707 237.90966797 C290.63243023 240.85958904 294.14453073 243.75664406 297.6875 246.625 C301.23896846 249.51249827 304.6793029 252.47968021 308.0625 255.5625 C311.9959256 259.14395502 316.06018506 262.47871525 320.234375 265.7734375 C328.76703031 272.64294813 337.00243136 279.88462084 345.01171875 287.35546875 C346.998153 289.19992169 346.998153 289.19992169 350 290 C350.23589844 289.44441406 350.47179687 288.88882812 350.71484375 288.31640625 C352.3127752 285.43624409 354.305005 283.33630924 356.5625 280.9375 C360.03391819 277.20404044 363.3591628 273.40783343 366.5625 269.4375 C369.44848793 265.86171531 372.40444804 262.39598682 375.5 259 C378.61458668 255.58260628 381.5918662 252.0947765 384.5 248.5 C387.4081338 244.9052235 390.38541332 241.41739372 393.5 238 C397.34117616 233.78067696 400.95881576 229.42025263 404.55078125 224.98828125 C410.74016104 217.43664562 417.11791714 210.03560157 423.6875 202.8125 C427.46535086 198.64873965 431.0240478 194.34043318 434.5625 189.97265625 C438.77254755 184.83828737 443.12199319 179.82363048 447.45605469 174.79394531 C449.4606875 172.46471667 451.458183 170.12942562 453.45581055 167.79418945 C458.66062661 161.71118396 463.89469145 155.65419882 469.14208984 149.60791016 C474.79007108 143.09645732 480.39681312 136.54999602 486 130 C508.20398143 104.04405867 508.20398143 104.04405867 515.75 95.75 C519.48502433 91.62929381 522.99657415 87.36020844 526.49609375 83.0390625 C530.99374286 77.58013738 535.6702128 72.27499899 540.31396484 66.94042969 C543.09474625 63.74007483 545.86202981 60.52823475 548.625 57.3125 C549.12169189 56.73653076 549.61838379 56.16056152 550.13012695 55.56713867 C552.90743787 52.34587157 552.90743787 52.34587157 555.31475735 48.84846401 C557 47 557 47 559.45171452 46.49942875 C560.43283931 46.49921947 561.4139641 46.49901018 562.42481995 46.49879456 C563.55252304 46.48896042 564.68022614 46.47912628 565.84210205 46.46899414 C567.08087097 46.47866211 568.31963989 46.48833008 569.59594727 46.49829102 C570.90061447 46.49288803 572.20528168 46.48748505 573.54948425 46.48191833 C577.13788273 46.46792055 580.72580369 46.47917732 584.31417584 46.49562955 C588.09234287 46.5095139 591.87048302 46.5030136 595.64866638 46.49949646 C602.01854065 46.49678939 608.38822714 46.51028637 614.75805664 46.53344727 C622.05413619 46.55979781 629.3498966 46.56189065 636.64600712 46.5500589 C643.71367509 46.53913554 650.78123104 46.54559703 657.8488903 46.55961418 C660.82784712 46.56527641 663.80671926 46.56536981 666.78567696 46.56054878 C727.3354183 46.48791217 785.15682657 61.63565733 835 97 C835.63276855 97.44875488 836.26553711 97.89750977 836.91748047 98.35986328 C860.77145115 115.38137947 884.22011073 135.57314045 902 159 C902.99709045 160.25908715 903.9959342 161.51678692 904.99609375 162.7734375 C943.31352528 211.34201119 966.6882359 271.66996959 973.64160156 332.93212891 C973.94629512 335.54028918 974.29619298 338.13306148 974.6796875 340.73046875 C978.82244149 370.4848133 976.75990258 402.46648941 972 432 C971.78537109 433.37696045 971.78537109 433.37696045 971.56640625 434.78173828 C962.23407296 494.31665655 938.16582864 550.9500752 899 597 C898.09058753 598.09458847 897.18176714 599.18966904 896.2734375 600.28515625 C886.72695668 611.7093192 876.41409315 622.42413159 865 632 C864.08476563 632.804375 863.16953125 633.60875 862.2265625 634.4375 C837.47469759 656.07138984 807.93907141 673.85793355 777 685 C776.05640625 685.34272949 775.1128125 685.68545898 774.140625 686.03857422 C755.53207373 692.75610081 737.26694062 698.15737711 717.8125 701.75 C716.68473145 701.96108398 715.55696289 702.17216797 714.39501953 702.38964844 C700.50436689 704.83703957 686.57764304 705.15226553 672.50585938 705.11352539 C671.01207736 705.11321796 669.5182952 705.1133544 668.02451324 705.11389065 C664.07854448 705.11411341 660.13260698 705.10838171 656.18664551 705.10128021 C652.46329821 705.09552098 648.73995262 705.09525485 645.01660156 705.09460449 C638.47289441 705.09253781 631.92919994 705.08631816 625.38549805 705.07791138 C614.76456914 705.06433392 604.14363877 705.05470377 593.52270508 705.04586792 C592.68938142 705.04517406 591.85605777 705.04448021 590.99748188 705.04376533 C586.75563182 705.04024218 582.51378174 705.03674814 578.27193165 705.0332669 C570.81701134 705.02713519 563.36209124 705.02075427 555.90717113 705.01438482 C552.30177427 705.01130641 548.6963774 705.00824323 545.09098053 705.00517941 C543.06065369 705.00345294 541.03032684 705.00172647 539 705 C538.79392816 667.3342946 538.63537675 629.66867424 538.54041203 592.00251902 C538.52915589 587.55408728 538.51750697 583.10565665 538.50561523 578.65722656 C538.50207404 577.32884234 538.50207404 577.32884234 538.49846131 575.97362207 C538.4593164 561.64068252 538.38836491 547.30806839 538.30562484 532.97532178 C538.22141317 518.26479237 538.17146096 503.55443319 538.15320355 488.84367263 C538.14086404 479.76865367 538.10191604 470.6945545 538.0287518 461.61981873 C537.98111831 455.3939726 537.96681222 449.16860084 537.9784876 442.94258578 C537.9842437 439.35194395 537.97552493 435.76290726 537.92715073 432.17255211 C537.87500585 428.27371822 537.89315988 424.37695752 537.91770935 420.47781372 C537.87838599 418.78808888 537.87838599 418.78808888 537.83826822 417.06422818 C537.97127184 409.23755764 540.26213787 405.49376733 545.82897335 400.03454769 C546.54541215 399.36314695 547.26185094 398.69174621 548 398 C549.47665783 396.24441791 550.93978688 394.47712289 552.375 392.6875 C555.71814567 388.55670221 559.11751331 384.48308125 562.5625 380.4375 C565.76756444 376.66926467 568.92688394 372.87753089 572 369 C576.37420014 363.48779657 580.92173256 358.1290217 585.48974609 352.77783203 C587.10271748 350.87908363 588.70221745 348.96948297 590.30078125 347.05859375 C591.38787801 345.76810884 592.47511428 344.47774144 593.5625 343.1875 C594.33158691 342.26179199 594.33158691 342.26179199 595.11621094 341.31738281 C596.36741435 339.84037299 597.67868416 338.41463509 599 337 C599.66 337 600.32 337 601 337 C601 437.65 601 538.3 601 642 C663.16216567 643.4559769 663.16216567 643.4559769 724.6875 634.5625 C725.80576172 634.27568359 726.92402344 633.98886719 728.07617188 633.69335938 C739.81934931 630.64026924 751.05501125 627.27804026 762 622 C763.85879606 621.13937349 765.71817879 620.28001302 767.578125 619.421875 C787.66222138 610.00827425 806.04692096 599.28057128 822.73876953 584.57861328 C824.83188217 582.74789663 826.71778693 581.13373163 829.2421875 579.9375 C831.55202052 578.70558906 831.91667592 577.33605686 833 575 C834.48046875 573.578125 834.48046875 573.578125 836.1875 572.25 C855.91556859 556.09891085 870.4491995 530.37847875 882 508 C882.36802734 507.2869873 882.73605469 506.57397461 883.11523438 505.83935547 C894.75051497 482.78290851 903.47196123 455.97103763 908.0625 430.5625 C908.22298828 429.73041016 908.38347656 428.89832031 908.54882812 428.04101562 C911.58818893 411.40387194 912.32989844 394.74174961 912.26074219 377.86230469 C912.24996113 374.73873719 912.26074411 371.61573845 912.2734375 368.4921875 C912.28172834 357.15306786 911.80073378 346.2036677 910 335 C909.78102051 333.55488037 909.78102051 333.55488037 909.55761719 332.08056641 C902.5889904 287.84529029 886.4309593 245.28836775 860 209 C859.58250488 208.42411133 859.16500977 207.84822266 858.73486328 207.25488281 C852.41409379 198.60488092 845.42433115 190.71332895 838 183 C837.44795898 182.42072754 836.89591797 181.84145508 836.32714844 181.24462891 C828.11737378 172.66210891 819.54769834 165.05676102 810 158 C809.43845215 157.5776709 808.8769043 157.1553418 808.29833984 156.72021484 C775.48481584 132.08404439 737.51794108 117.4118269 697 112 C696.36155655 111.91171936 695.7231131 111.82343872 695.06532288 111.73248291 C685.82193779 110.63376699 676.50553462 110.76778904 667.2109375 110.68359375 C665.51342331 110.66515686 663.81591344 110.64631849 662.1184082 110.6270752 C655.87065641 110.55903316 649.62282235 110.49872175 643.375 110.4375 C622.399375 110.2209375 622.399375 110.2209375 601 110 C601 146.3 601 182.6 601 220 C580.54 220 560.08 220 539 220 C539 201.85 539 183.7 539 165 C535.22973376 168.01621299 532.87566925 170.15613148 530 173.8125 C526.33973092 178.37571625 522.59106881 182.83795377 518.75 187.25 C517.9288269 188.19456055 517.9288269 188.19456055 517.09106445 189.15820312 C514.82224931 191.76544574 512.55026158 194.36990449 510.27685547 196.97314453 C504.33969673 203.7741354 498.47196584 210.58396478 492.88671875 217.6796875 C490.14215555 221.05498883 487.19934343 224.23881657 484.26953125 227.453125 C482.02031197 229.97720584 479.87649802 232.5595061 477.75 235.1875 C473.58915231 240.32694428 469.28265511 245.32326152 464.94067383 250.30908203 C460.9535878 254.89043346 457.01214495 259.50710443 453.09863281 264.15136719 C449.71518136 268.16384085 446.29909223 272.14718561 442.875 276.125 C439.293689 280.28680137 435.76841707 284.4826937 432.3125 288.75 C428.75732096 293.13151795 425.03230463 297.31710681 421.234375 301.48828125 C418.99865467 304.00151232 416.86622318 306.57311479 414.75 309.1875 C407.85941266 317.6979798 400.60576387 325.90348243 393.375 334.125 C386.89436692 341.51997982 380.56467847 349.04779196 374.375 356.6875 C370.73638967 361.16227213 366.94300365 365.46281206 363.04296875 369.7109375 C360.93468885 372.07317846 358.95661814 374.5113576 357 377 C352.96194134 375.63733356 350.45631882 373.8590849 347.375 370.9375 C343.91579043 367.73339438 340.41723434 364.65157731 336.75 361.6875 C332.43549115 358.19567292 328.20290489 354.62423581 324 351 C319.87544389 347.44532786 315.72791688 343.9320737 311.5 340.5 C306.65403211 336.5662143 301.91901472 332.51552241 297.19140625 328.44140625 C293.66682097 325.41041716 290.10951168 322.43007419 286.5 319.5 C282.3985087 316.16978039 278.37439035 312.7635823 274.375 309.3125 C269.12079118 304.78150127 263.80182374 300.3375184 258.4375 295.9375 C250.6711262 289.56723056 242.99124702 283.10254243 235.34423828 276.58984375 C227.28461748 269.7280697 227.28461748 269.7280697 219.0625 263.0625 C214.35020945 259.3293867 209.80126316 255.42370615 205.24902344 251.49902344 C199.909772 246.90302832 194.47179742 242.43724784 189 238 C187.16596746 236.500855 185.33264019 235.00084678 183.5 233.5 C180.77618311 231.2700196 178.05119199 229.04164013 175.3203125 226.8203125 C169.77231843 222.30151153 164.28611801 217.71789511 158.83422852 213.08422852 C155.4408462 210.20479732 152.01750083 207.36810273 148.5625 204.5625 C144.29254751 201.08927334 140.10508232 197.5319418 135.9375 193.9375 C131.2209964 189.87102327 126.44158283 185.91613594 121.5546875 182.0546875 C117.94067858 179.14800755 114.41603007 176.13991503 110.88427734 173.13427734 C107.47511594 170.23683996 104.03638783 167.38247953 100.5625 164.5625 C95.70474628 160.60982994 90.95317233 156.54451931 86.20922852 152.45703125 C81.69653432 148.57674852 77.12282172 144.78397574 72.5 141.03515625 C69.64770234 138.71320769 66.82545135 136.35454279 64 134 C63.67 322.43 63.34 510.86 63 705 C42.21 705 21.42 705 0 705 C0 472.35 0 239.7 0 0 Z " fill="#F0F1EB" transform="translate(666,392)"/>
<path d="M0 0 C1.25087308 0.00368717 2.50174616 0.00737434 3.79052448 0.01117325 C4.48561115 0.00774918 5.18069782 0.0043251 5.89684772 0.00079727 C8.23896205 -0.00583646 10.57993828 0.01628762 12.92194843 0.03808975 C14.62440581 0.03931476 16.32686522 0.03878169 18.02932167 0.03662872 C22.5957154 0.03572427 27.16169134 0.05893644 31.72798634 0.08707047 C36.01006125 0.10982103 40.29203366 0.11092131 44.57417011 0.11377335 C57.10397009 0.13477721 69.63369205 0.19062167 82.16340351 0.24219131 C110.15152851 0.32469131 138.13965351 0.40719131 166.97590351 0.49219131 C166.97590351 107.74219131 166.97590351 214.99219131 166.97590351 325.49219131 C146.51590351 325.49219131 126.05590351 325.49219131 104.97590351 325.49219131 C104.97590351 239.03219131 104.97590351 152.57219131 104.97590351 63.49219131 C78.24590351 63.49219131 51.51590351 63.49219131 23.97590351 63.49219131 C23.31590351 64.81219131 22.65590351 66.13219131 21.97590351 67.49219131 C20.25957209 69.59728908 18.5211358 71.64436366 16.72590351 73.67969131 C11.99865749 79.11489992 7.35899375 84.61203941 2.78840351 90.17969131 C1.8948415 91.2673378 1.8948415 91.2673378 0.98322773 92.37695694 C-1.5140585 95.4205029 -4.00513791 98.46887617 -6.48894024 101.52344131 C-11.09854999 107.19167754 -15.80948569 112.75942104 -20.57658672 118.29492569 C-25.15299633 123.61860857 -29.60416049 129.03797413 -34.02409649 134.49219131 C-41.05354248 143.14284286 -48.22181168 151.66550312 -55.44011211 160.15820694 C-60.15929259 165.71287165 -64.86484698 171.27279057 -69.46159649 176.92969131 C-73.41917837 181.79348157 -77.48952095 186.55100363 -81.5824461 191.30054092 C-84.61354938 194.8251805 -87.59394965 198.38259014 -90.52409649 201.99219131 C-94.45788219 206.83815921 -98.50857408 211.57317659 -102.58269024 216.30078506 C-105.61367933 219.82537035 -108.5940223 223.38267964 -111.52409649 226.99219131 C-115.41528299 231.78242452 -119.40881508 236.47525161 -123.43547344 241.151371 C-126.88695877 245.16011313 -130.30669707 249.19385105 -133.71159649 253.24219131 C-136.90855016 257.04218354 -140.16465123 260.77189391 -143.52409649 264.42969131 C-147.57554011 268.87904457 -151.25373743 273.55889056 -154.93376446 278.31348038 C-158.38639544 282.74860663 -162.04208856 286.93281946 -165.84831524 291.07031631 C-168.14319716 293.62476297 -170.30600783 296.25691238 -172.46159649 298.92969131 C-176.42014471 303.82743814 -180.57725819 308.46615449 -184.86003399 313.08203506 C-186.71630626 315.14939967 -188.40321069 317.23863719 -190.02409649 319.49219131 C-194.3344486 319.02010513 -196.79548045 316.23615345 -199.77409649 313.36719131 C-200.84897735 312.35609388 -201.92449824 311.3456764 -203.00065899 310.33594131 C-203.52047344 309.8448085 -204.0402879 309.35367569 -204.5758543 308.84766006 C-206.39656294 307.14358481 -208.2634128 305.49888496 -210.14909649 303.86719131 C-213.08438925 301.32528831 -215.9654859 298.73138934 -218.83659649 296.11719131 C-222.25638977 293.0258233 -225.74368173 290.067601 -229.33659649 287.17969131 C-234.7878575 282.77081024 -239.90123147 278.05695151 -245.02409649 273.27734756 C-247.98285671 270.51872792 -251.00804734 267.84607806 -254.06706524 265.19922256 C-256.40968799 263.15585701 -258.71683071 261.07538272 -261.02409649 258.99219131 C-266.35972285 254.1820433 -271.73996529 249.43238894 -277.21159649 244.77734756 C-284.05130884 238.95339634 -290.76930664 233.03313988 -297.36784649 226.93750381 C-301.85071067 222.81063179 -306.44589842 218.82458537 -311.09831524 214.89062881 C-318.18227836 208.88545208 -325.06868253 202.72187696 -331.83439922 196.3598671 C-336.14912273 192.30261233 -340.50751534 188.32495364 -345.02409649 184.49219131 C-345.51120098 184.07872452 -345.99830547 183.66525772 -346.50017071 183.23926163 C-349.2559665 180.90145683 -352.01523892 178.56784956 -354.77800274 176.23828506 C-358.20625723 173.33808903 -361.61469905 170.41453198 -365.02409649 167.49219131 C-365.02409649 263.52219131 -365.02409649 359.55219131 -365.02409649 458.49219131 C-385.48409649 458.49219131 -405.94409649 458.49219131 -427.02409649 458.49219131 C-427.02409649 316.92219131 -427.02409649 175.35219131 -427.02409649 29.49219131 C-421.92395119 33.31730029 -417.27047252 36.95293885 -412.71159649 41.30469131 C-408.82011443 44.96233594 -404.89506045 48.47808142 -400.71159649 51.80469131 C-395.15790188 56.25904755 -390.01054185 61.09667875 -384.85686016 66.00122452 C-380.9262432 69.73776139 -376.92666026 73.36655654 -372.83000469 76.92041397 C-370.59198316 78.86828238 -368.40135581 80.86534479 -366.21159649 82.86719131 C-362.81326097 85.93965905 -359.34819126 88.87661753 -355.77409649 91.74219131 C-350.70146807 95.84041654 -345.96501655 100.22328283 -341.22087383 104.68994522 C-336.88496666 108.75033049 -332.38350809 112.52732399 -327.74675274 116.24219131 C-323.61716693 119.65487629 -319.71526164 123.30239545 -315.78581524 126.94141006 C-311.23658385 131.14317541 -306.56042565 135.18661644 -301.84440899 139.19922256 C-295.00149139 145.02788125 -288.27873742 150.95108873 -281.67644024 157.05078506 C-277.65789427 160.74974122 -273.53889462 164.32355666 -269.40300274 167.89014053 C-261.99519501 174.28037038 -254.63641808 180.70373818 -247.41862774 187.30859756 C-244.00082715 190.42531947 -240.51898426 193.46251323 -237.02409649 196.49219131 C-235.8768262 197.49333886 -234.72970494 198.4946572 -233.58269024 199.49609756 C-227.91882141 204.43219048 -222.25581733 209.34701965 -216.39909649 214.05469131 C-209.99666418 219.23071502 -204.02093568 224.85764129 -198.02409649 230.49219131 C-194.49983004 229.03920427 -192.80579579 227.26444215 -190.52409649 224.24219131 C-187.16039566 219.901326 -183.67840799 215.70588329 -180.08659649 211.55469131 C-176.50991854 207.41010996 -172.97409904 203.24364637 -169.52409649 198.99219131 C-165.58966393 194.14542657 -161.53855075 189.40939877 -157.46330547 184.6814003 C-154.4516464 181.1798383 -151.49350699 177.64432575 -148.58659649 174.05469131 C-144.98773451 169.61979606 -141.27673761 165.29654881 -137.52409649 160.99219131 C-133.00932365 155.8128896 -128.59171896 150.57383517 -124.26628399 145.23437881 C-121.259479 141.55706679 -118.1818758 137.94205012 -115.10515118 134.323246 C-112.24537598 130.95329488 -109.43139418 127.55174927 -106.64909649 124.11719131 C-103.07476624 119.71948856 -99.38139936 115.44261467 -95.64909649 111.17969131 C-90.87964508 105.72819587 -86.34124952 100.14720217 -81.9117918 94.41748428 C-78.52597071 90.06304551 -74.92456958 85.96516202 -71.19206524 81.90234756 C-68.15760988 78.52890801 -65.3272142 75.00284985 -62.47331524 71.47656631 C-59.70598847 68.10457644 -56.87259234 64.79556811 -54.02409649 61.49219131 C-49.70458184 56.47919526 -45.47311883 51.40681014 -41.30144024 46.26953506 C-38.27924426 42.58380378 -35.19262442 38.95474309 -32.10539532 35.32349014 C-29.24550154 31.95348815 -26.43146667 28.55183875 -23.64909649 25.11719131 C-19.36589213 19.84853958 -14.9258929 14.72463415 -10.45231915 9.6176796 C-9.92170879 9.01037003 -9.39109844 8.40306046 -8.84440899 7.77734756 C-8.37277325 7.23988907 -7.9011375 6.70243057 -7.41520977 6.14868546 C-5.94552665 4.50345657 -5.94552665 4.50345657 -4.86306572 2.41872406 C-3.02409649 0.49219131 -3.02409649 0.49219131 0 0 Z " fill="#F0F1EB" transform="translate(1226.0240964889526,638.5078086853027)"/>
<path d="M0 0 C0.33 0 0.66 0 1 0 C1.08153933 1.58246707 1.13943557 3.16616273 1.1875 4.75 C1.23970703 6.07257812 1.23970703 6.07257812 1.29296875 7.421875 C0.94923684 10.44671583 -0.00227459 11.75583602 -2 14 C-2.05389087 12.04196493 -2.09274217 10.08351091 -2.125 8.125 C-2.14820313 7.03445313 -2.17140625 5.94390625 -2.1953125 4.8203125 C-2 2 -2 2 0 0 Z " fill="#FBFBF8" transform="translate(669,621)"/>
<path d="M0 0 C0.66 0 1.32 0 2 0 C3.125 5.75 3.125 5.75 2 8 C1.77377919 9.70363822 1.59111527 11.41328701 1.4375 13.125 C1.35371094 14.03507813 1.26992187 14.94515625 1.18359375 15.8828125 C1.12300781 16.58148437 1.06242187 17.28015625 1 18 C0.67 18 0.34 18 0 18 C0 12.06 0 6.12 0 0 Z " fill="#F8F8F2" transform="translate(1205,558)"/>
<path d="M0 0 C0.66 0.33 1.32 0.66 2 1 C0.4169423 5.2742558 -2.50568404 7.26531794 -6 10 C-6.66 9.67 -7.32 9.34 -8 9 C-5.36 6.03 -2.72 3.06 0 0 Z " fill="#21211E" transform="translate(1212,748)"/>
<path d="M0 0 C0.33 0 0.66 0 1 0 C1.375 7.5 1.375 7.5 -2 12 C-2 8.7 -2 5.4 -2 2 C-1.34 2 -0.68 2 0 2 C0 1.34 0 0.68 0 0 Z " fill="#FBFBF8" transform="translate(669,647)"/>
<path d="M0 0 C0.66 0 1.32 0 2 0 C0.79618552 2.49361571 -0.45428722 4.68143083 -2 7 C-4.625 7.6875 -4.625 7.6875 -7 8 C-6.02133662 6.85373678 -5.04205413 5.70800212 -4.0625 4.5625 C-3.51722656 3.92441406 -2.97195313 3.28632812 -2.41015625 2.62890625 C-1.63204305 1.73008851 -0.84063472 0.84063472 0 0 Z " fill="#1D1D1A" transform="translate(1221,738)"/>
<path d="M0 0 C0.66 0 1.32 0 2 0 C2.19622241 4.21878192 1.80230168 7.17010894 0 11 C-0.33 11 -0.66 11 -1 11 C-1.02688151 9.35425434 -1.04634123 7.70838587 -1.0625 6.0625 C-1.07410156 5.14597656 -1.08570313 4.22945312 -1.09765625 3.28515625 C-1 1 -1 1 0 0 Z " fill="#FBFBF8" transform="translate(668,552)"/>
<path d="M0 0 C0.33 1.32 0.66 2.64 1 4 C-1.64 5.98 -4.28 7.96 -7 10 C-4.98127747 5.96255494 -2.91899872 3.37989325 0 0 Z " fill="#292925" transform="translate(1194,567)"/>
<path d="M0 0 C-1.24976756 3.65316671 -1.67098753 4.78065836 -5 7 C-5.33 6.01 -5.66 5.02 -6 4 C-2.25 0 -2.25 0 0 0 Z " fill="#E6E5E0" transform="translate(1125,851)"/>
<path d="M0 0 C0.33 0 0.66 0 1 0 C1 1.98 1 3.96 1 6 C-0.65 6 -2.3 6 -4 6 C-2.69593116 3.98079663 -1.36176581 1.98075027 0 0 Z " fill="#FBFCF8" transform="translate(727,1090)"/>
<path d="M0 0 C0 0.99 0 1.98 0 3 C-0.66 3.66 -1.32 4.32 -2 5 C-2.99 5 -3.98 5 -5 5 C-4.1875 3.0625 -4.1875 3.0625 -3 1 C-2.01 0.67 -1.02 0.34 0 0 Z " fill="#E1E2DC" transform="translate(1210,657)"/>
</svg>
